<svg id="credit_score" data-name="credit score" xmlns="http://www.w3.org/2000/svg" width="25" height="25" viewBox="0 0 54.101 26.978">
  <path id="Path_19703" data-name="Path 19703" d="M165.086,52.94h-9.332a18.136,18.136,0,0,0-3.614-10.68c2.221-2.251,4.355-4.415,6.579-6.671a24.962,24.962,0,0,1,5.251,9.66c.473,1.631.749,3.319,1.115,4.983v2.705Zm-1.125-1.225a25.473,25.473,0,0,0-5.315-14.48c-1.769,1.8-3.4,3.465-4.958,5.056a45.452,45.452,0,0,1,2.048,4.425,50.543,50.543,0,0,1,1.223,5h7Z" transform="translate(-110.985 -25.963)" fill="#1cafea"/>
  <path id="Path_19704" data-name="Path 19704" d="M0,50.517c.354-1.62.638-3.262,1.082-4.858A25.139,25.139,0,0,1,6.249,35.98c2.172,2.224,4.32,4.42,6.568,6.719A17.683,17.683,0,0,0,9.373,53.222H0Zm11.526-7.888c-1.734-1.756-3.368-3.411-5-5.069C3.655,40.37.709,48.44,1.309,51.961H8.294A19.157,19.157,0,0,1,11.526,42.629Z" transform="translate(0 -26.247)" fill="#1cafea"/>
  <path id="Path_19705" data-name="Path 19705" d="M115.353,14.142A17.914,17.914,0,0,0,104.37,9.316V0a26.9,26.9,0,0,1,17.545,7.469C119.743,9.676,117.6,11.859,115.353,14.142Zm5.315-6.571c-2.183-1.428-4.4-2.884-6.738-4.415-1.171,2.378-2.2,4.458-3.187,6.462q2.613,1.664,4.834,3.076l5.088-5.123Z" transform="translate(-76.137)" fill="#1cafea"/>
  <path id="Path_19706" data-name="Path 19706" d="M36.619,14.323,30.07,7.669A26.949,26.949,0,0,1,47.823,0V9.316a18.136,18.136,0,0,0-11.2,5.007ZM46.744,1.182A25.509,25.509,0,0,0,31.763,7.607l5.015,5.1A19.472,19.472,0,0,1,46.744,8.3Z" transform="translate(-21.936)" fill="#1cafea"/>
  <path id="Path_19707" data-name="Path 19707" d="M98.507,48c-.176.606-.246.939-.368,1.255-1.366,3.568-2.756,7.128-4.1,10.707a2.548,2.548,0,0,1-2.364,1.891,2.465,2.465,0,0,1-2.5-1.5,2.5,2.5,0,0,1,.576-2.965c2.686-2.913,5.356-5.846,8.034-8.764.146-.157.327-.281.722-.619Z" transform="translate(-64.859 -35.016)" fill="#1cafea"/>
</svg>
